<svg xmlns="http://www.w3.org/2000/svg" width="48" height="48"><path d="M130 300h64v64h-64z" style="fill:#165016;stroke-width:.991064" transform="matrix(.16113 0 0 .15985 -17.572 -29.192)"/><path d="M194 300h64v64h-64z" style="fill:#217821;stroke-width:.991064" transform="matrix(.16113 0 0 .15985 -17.572 -29.192)"/><path d="M258 300h64v64h-64z" style="fill:#2ca02c;stroke-width:.991064" transform="matrix(.16113 0 0 .15985 -17.572 -29.192)"/><path d="M322 300h64v64h-64z" style="fill:#37c837;stroke-width:.991064" transform="matrix(.16113 0 0 .15985 -17.572 -29.192)"/><path d="M130 300h64v64h-64z" style="fill:#501616;stroke-width:.991064" transform="matrix(.16113 0 0 .15985 -17.572 -39.422)"/><path d="M194 300h64v64h-64z" style="fill:#782121;stroke-width:.991064" transform="matrix(.16113 0 0 .15985 -17.572 -39.422)"/><path d="M258 300h64v64h-64z" style="fill:#a02c2c;stroke-width:.991064" transform="matrix(.16113 0 0 .15985 -17.572 -39.422)"/><path d="M322 300v64h64v-31.983C386 314.28 371.72 300 353.982 300Z" style="fill:#c83737;stroke-width:.991064" transform="matrix(.16113 0 0 .15985 -17.572 -39.422)"/><g transform="matrix(.16113 0 0 .15985 -17.572 -18.962)"><path d="M130 300h64v64h-64z" style="fill:#003380;stroke-width:.991064"/><path d="M258 300h64v64h-64z" style="fill:#0055d4;stroke-width:.991064"/><rect width="64" height="64" x="322" y="300" ry="0" style="fill:#06f;stroke-width:.991064"/><path d="M194 300h64v64h-64z" style="fill:#04a;stroke:#fff;stroke-width:3.072;stroke-linejoin:round;stroke-dasharray:none;stroke-dashoffset:0;stroke-opacity:1"/></g><g transform="matrix(.11953 .03177 -.03203 .11858 -7.177 -7.258)"><path d="M334.82 169.592c0 26.979-48.849 108.85-48.849 108.85s-48.848-81.871-48.848-108.85 21.87-48.848 48.848-48.848c26.979 0 48.849 21.87 48.849 48.848" style="fill:#1a1a1a"/><circle cx="285.971" cy="169.592" r="28.46" style="fill:#04a;stroke-width:.582609"/></g></svg>