<svg xmlns="http://www.w3.org/2000/svg" width="64" height="64"><path d="M130 300h64v64h-64z" style="fill:#165016;stroke-width:.991064" transform="matrix(.21484 0 0 .21313 -23.43 -38.922)"/><path d="M194 300h64v64h-64z" style="fill:#217821;stroke-width:.991064" transform="matrix(.21484 0 0 .21313 -23.43 -38.922)"/><path d="M258 300h64v64h-64z" style="fill:#2ca02c;stroke-width:.991064" transform="matrix(.21484 0 0 .21313 -23.43 -38.922)"/><path d="M322 300h64v64h-64z" style="fill:#37c837;stroke-width:.991064" transform="matrix(.21484 0 0 .21313 -23.43 -38.922)"/><path d="M130 300h64v64h-64z" style="fill:#501616;stroke-width:.991064" transform="matrix(.21484 0 0 .21313 -23.43 -52.563)"/><path d="M194 300h64v64h-64z" style="fill:#782121;stroke-width:.991064" transform="matrix(.21484 0 0 .21313 -23.43 -52.563)"/><path d="M258 300h64v64h-64z" style="fill:#a02c2c;stroke-width:.991064" transform="matrix(.21484 0 0 .21313 -23.43 -52.563)"/><path d="M322 300v64h64v-31.983C386 314.28 371.72 300 353.982 300Z" style="fill:#c83737;stroke-width:.991064" transform="matrix(.21484 0 0 .21313 -23.43 -52.563)"/><g transform="matrix(.21484 0 0 .21313 -23.43 -25.282)"><path d="M130 300h64v64h-64z" style="fill:#003380;stroke-width:.991064"/><path d="M258 300h64v64h-64z" style="fill:#0055d4;stroke-width:.991064"/><rect width="64" height="64" x="322" y="300" ry="0" style="fill:#06f;stroke-width:.991064"/><path d="M194 300h64v64h-64z" style="fill:#04a;stroke:#fff;stroke-width:3.072;stroke-linejoin:round;stroke-dasharray:none;stroke-dashoffset:0;stroke-opacity:1"/></g><g transform="matrix(.15938 .04236 -.0427 .1581 -9.569 -9.677)"><path d="M334.82 169.592c0 26.979-48.849 108.85-48.849 108.85s-48.848-81.871-48.848-108.85 21.87-48.848 48.848-48.848c26.979 0 48.849 21.87 48.849 48.848" style="fill:#1a1a1a"/><circle cx="285.971" cy="169.592" r="28.46" style="fill:#04a;stroke-width:.582609"/></g></svg>